HIERARCHY
ROOT mixamorig:Hips
{
	OFFSET 0.000000 201.639420 0.000000
	CHANNELS 6 Xposition Yposition Zposition Xrotation Yrotation Zrotation
	JOINT mixamorig:Spine
	{
		OFFSET 0.006200 19.524994 -2.481800
		CHANNELS 3 Xrotation Yrotation Zrotation
		JOINT mixamorig:Spine1
		{
			OFFSET -0.000900 22.835007 -2.825400
			CHANNELS 3 Xrotation Yrotation Zrotation
			JOINT mixamorig:Spine2
			{
				OFFSET -0.020600 26.552490 -3.193300
				CHANNELS 3 Xrotation Yrotation Zrotation
				JOINT mixamorig:Neck
				{
					OFFSET -0.060000 30.701813 1.352200
					CHANNELS 3 Xrotation Yrotation Zrotation
					JOINT mixamorig:Head
					{
						OFFSET -0.087200 22.547607 3.670900
						CHANNELS 3 Xrotation Yrotation Zrotation
						JOINT mixamorig:HeadTop_End
						{
							OFFSET -0.830600 40.355194 7.893500
							CHANNELS 3 Xrotation Yrotation Zrotation
							End Site
							{
								OFFSET 0.000000 30.592346 0.000000
							}
						}
						JOINT mixamorig:RightEye
						{
							OFFSET -6.302100 18.118591 16.197100
							CHANNELS 3 Xrotation Yrotation Zrotation
							End Site
							{
								OFFSET 0.000000 30.592346 0.000000
							}
						}
						JOINT mixamorig:LeftEye
						{
							OFFSET 6.741500 18.382690 16.401899
							CHANNELS 3 Xrotation Yrotation Zrotation
							End Site
							{
								OFFSET 0.000000 30.592346 0.000000
							}
						}
					}
				}
				JOINT mixamorig:LeftShoulder
				{
					OFFSET 11.924900 18.230499 1.425400
					CHANNELS 3 Xrotation Yrotation Zrotation
					JOINT mixamorig:LeftArm
					{
						OFFSET 25.435989 -0.697632 -5.229300
						CHANNELS 3 Xrotation Yrotation Zrotation
						JOINT mixamorig:LeftForeArm
						{
							OFFSET 54.684776 0.000000 0.000000
							CHANNELS 3 Xrotation Yrotation Zrotation
							JOINT mixamorig:LeftHand
							{
								OFFSET 55.098175 0.000000 0.000000
								CHANNELS 3 Xrotation Yrotation Zrotation
								JOINT mixamorig:LeftHandMiddle1
								{
									OFFSET 23.369751 0.000000 0.000000
									CHANNELS 3 Xrotation Yrotation Zrotation
									JOINT mixamorig:LeftHandMiddle2
									{
										OFFSET 6.378677 0.000000 0.000000
										CHANNELS 3 Xrotation Yrotation Zrotation
										JOINT mixamorig:LeftHandMiddle3
										{
											OFFSET 6.148331 0.000000 0.000000
											CHANNELS 3 Xrotation Yrotation Zrotation
											JOINT mixamorig:LeftHandMiddle4
											{
												OFFSET 6.582504 0.000000 0.000000
												CHANNELS 3 Xrotation Yrotation Zrotation
												End Site
												{
													OFFSET -1.168900 6.395691 1.028606
												}
											}
										}
									}
								}
								JOINT mixamorig:LeftHandThumb1
								{
									OFFSET 7.235672 -3.848206 5.434273
									CHANNELS 3 Xrotation Yrotation Zrotation
									JOINT mixamorig:LeftHandThumb2
									{
										OFFSET 6.568451 -3.792297 3.792300
										CHANNELS 3 Xrotation Yrotation Zrotation
										JOINT mixamorig:LeftHandThumb3
										{
											OFFSET 6.063080 -3.500519 3.500518
											CHANNELS 3 Xrotation Yrotation Zrotation
											JOINT mixamorig:LeftHandThumb4
											{
												OFFSET 4.793182 -2.767334 2.767349
												CHANNELS 3 Xrotation Yrotation Zrotation
												End Site
												{
													OFFSET 0.101639 6.054260 1.275483
												}
											}
										}
									}
								}
								JOINT mixamorig:LeftHandIndex1
								{
									OFFSET 23.101074 -0.309540 4.992809
									CHANNELS 3 Xrotation Yrotation Zrotation
									JOINT mixamorig:LeftHandIndex2
									{
										OFFSET 6.226883 0.000000 0.000000
										CHANNELS 3 Xrotation Yrotation Zrotation
										JOINT mixamorig:LeftHandIndex3
										{
											OFFSET 6.094330 0.000000 0.000000
											CHANNELS 3 Xrotation Yrotation Zrotation
											JOINT mixamorig:LeftHandIndex4
											{
												OFFSET 5.482605 0.000000 0.000000
												CHANNELS 3 Xrotation Yrotation Zrotation
												End Site
												{
													OFFSET -1.427902 5.233032 0.797164
												}
											}
										}
									}
								}
								JOINT mixamorig:LeftHandRing1
								{
									OFFSET 22.299240 0.021149 -3.964172
									CHANNELS 3 Xrotation Yrotation Zrotation
									JOINT mixamorig:LeftHandRing2
									{
										OFFSET 6.321869 0.000000 0.000000
										CHANNELS 3 Xrotation Yrotation Zrotation
										JOINT mixamorig:LeftHandRing3
										{
											OFFSET 5.899796 0.000000 0.000000
											CHANNELS 3 Xrotation Yrotation Zrotation
											JOINT mixamorig:LeftHandRing4
											{
												OFFSET 6.517899 0.000000 0.000000
												CHANNELS 3 Xrotation Yrotation Zrotation
												End Site
												{
													OFFSET -1.637299 6.232208 0.980890
												}
											}
										}
									}
								}
								JOINT mixamorig:LeftHandPinky1
								{
									OFFSET 20.463791 -0.302338 -8.562233
									CHANNELS 3 Xrotation Yrotation Zrotation
									JOINT mixamorig:LeftHandPinky2
									{
										OFFSET 6.908646 0.000000 0.000000
										CHANNELS 3 Xrotation Yrotation Zrotation
										JOINT mixamorig:LeftHandPinky3
										{
											OFFSET 4.622849 0.000000 0.000000
											CHANNELS 3 Xrotation Yrotation Zrotation
											JOINT mixamorig:LeftHandPinky4
											{
												OFFSET 5.216080 0.000000 0.000000
												CHANNELS 3 Xrotation Yrotation Zrotation
												End Site
												{
													OFFSET -0.606308 5.116241 0.814926
												}
											}
										}
									}
								}
							}
						}
					}
				}
				JOINT mixamorig:RightShoulder
				{
					OFFSET -12.001300 18.284088 1.348900
					CHANNELS 3 Xrotation Yrotation Zrotation
					JOINT mixamorig:RightArm
					{
						OFFSET -25.308500 -0.751312 -5.164599
						CHANNELS 3 Xrotation Yrotation Zrotation
						JOINT mixamorig:RightForeArm
						{
							OFFSET -54.684429 0.000000 0.000000
							CHANNELS 3 Xrotation Yrotation Zrotation
							JOINT mixamorig:RightHand
							{
								OFFSET -55.150291 0.000000 0.000000
								CHANNELS 3 Xrotation Yrotation Zrotation
								JOINT mixamorig:RightHandMiddle1
								{
									OFFSET -23.317566 0.000000 0.000000
									CHANNELS 3 Xrotation Yrotation Zrotation
									JOINT mixamorig:RightHandMiddle2
									{
										OFFSET -6.378403 0.000000 0.000000
										CHANNELS 3 Xrotation Yrotation Zrotation
										JOINT mixamorig:RightHandMiddle3
										{
											OFFSET -6.148193 0.000000 0.000000
											CHANNELS 3 Xrotation Yrotation Zrotation
											JOINT mixamorig:RightHandMiddle4
											{
												OFFSET -6.583389 0.000000 0.000000
												CHANNELS 3 Xrotation Yrotation Zrotation
												End Site
												{
													OFFSET 1.171692 6.395905 1.029786
												}
											}
										}
									}
								}
								JOINT mixamorig:RightHandThumb1
								{
									OFFSET -7.190521 -3.860474 5.435846
									CHANNELS 3 Xrotation Yrotation Zrotation
									JOINT mixamorig:RightHandThumb2
									{
										OFFSET -6.567429 -3.791718 3.791708
										CHANNELS 3 Xrotation Yrotation Zrotation
										JOINT mixamorig:RightHandThumb3
										{
											OFFSET -6.062469 -3.500153 3.500166
											CHANNELS 3 Xrotation Yrotation Zrotation
											JOINT mixamorig:RightHandThumb4
											{
												OFFSET -4.792618 -2.767029 2.767022
												CHANNELS 3 Xrotation Yrotation Zrotation
												End Site
												{
													OFFSET -0.100327 6.053253 1.276754
												}
											}
										}
									}
								}
								JOINT mixamorig:RightHandIndex1
								{
									OFFSET -23.048981 -0.310791 4.992554
									CHANNELS 3 Xrotation Yrotation Zrotation
									JOINT mixamorig:RightHandIndex2
									{
										OFFSET -6.227539 0.000000 0.000000
										CHANNELS 3 Xrotation Yrotation Zrotation
										JOINT mixamorig:RightHandIndex3
										{
											OFFSET -6.095047 0.000000 0.000000
											CHANNELS 3 Xrotation Yrotation Zrotation
											JOINT mixamorig:RightHandIndex4
											{
												OFFSET -5.484772 0.000000 0.000000
												CHANNELS 3 Xrotation Yrotation Zrotation
												End Site
												{
													OFFSET 1.420593 5.237305 0.797056
												}
											}
										}
									}
								}
								JOINT mixamorig:RightHandRing1
								{
									OFFSET -22.246323 0.020569 -3.963762
									CHANNELS 3 Xrotation Yrotation Zrotation
									JOINT mixamorig:RightHandRing2
									{
										OFFSET -6.322128 0.000000 0.000000
										CHANNELS 3 Xrotation Yrotation Zrotation
										JOINT mixamorig:RightHandRing3
										{
											OFFSET -5.900024 0.000000 0.000000
											CHANNELS 3 Xrotation Yrotation Zrotation
											JOINT mixamorig:RightHandRing4
											{
												OFFSET -6.518356 0.000000 0.000000
												CHANNELS 3 Xrotation Yrotation Zrotation
												End Site
												{
													OFFSET 1.636398 6.232697 0.982186
												}
											}
										}
									}
								}
								JOINT mixamorig:RightHandPinky1
								{
									OFFSET -20.411011 -0.303314 -8.561701
									CHANNELS 3 Xrotation Yrotation Zrotation
									JOINT mixamorig:RightHandPinky2
									{
										OFFSET -6.907349 0.000000 0.000000
										CHANNELS 3 Xrotation Yrotation Zrotation
										JOINT mixamorig:RightHandPinky3
										{
											OFFSET -4.623840 0.000000 0.000000
											CHANNELS 3 Xrotation Yrotation Zrotation
											JOINT mixamorig:RightHandPinky4
											{
												OFFSET -5.218353 0.000000 0.000000
												CHANNELS 3 Xrotation Yrotation Zrotation
												End Site
												{
													OFFSET 0.602097 5.118835 0.816273
												}
											}
										}
									}
								}
							}
						}
					}
				}
			}
		}
	}
	JOINT mixamorig:LeftUpLeg
	{
		OFFSET 18.168400 -13.561905 -0.039000
		CHANNELS 3 Xrotation Yrotation Zrotation
		JOINT mixamorig:LeftLeg
		{
			OFFSET 0.577358 -80.825211 -3.695000
			CHANNELS 3 Xrotation Yrotation Zrotation
			JOINT mixamorig:LeftFoot
			{
				OFFSET -0.577356 -83.370262 -6.520700
				CHANNELS 3 Xrotation Yrotation Zrotation
				JOINT mixamorig:LeftToeBase
				{
					OFFSET 0.750401 -20.798306 25.135401
					CHANNELS 3 Xrotation Yrotation Zrotation
					JOINT mixamorig:LeftToe_End
					{
						OFFSET -0.000500 0.001200 19.917799
						CHANNELS 3 Xrotation Yrotation Zrotation
						End Site
						{
							OFFSET 0.000000 19.917805 0.000000
						}
					}
				}
			}
		}
	}
	JOINT mixamorig:RightUpLeg
	{
		OFFSET -18.162500 -13.585098 -0.041000
		CHANNELS 3 Xrotation Yrotation Zrotation
		JOINT mixamorig:RightLeg
		{
			OFFSET -0.595024 -80.945297 -3.631900
			CHANNELS 3 Xrotation Yrotation Zrotation
			JOINT mixamorig:RightFoot
			{
				OFFSET 0.595024 -83.218193 -6.561200
				CHANNELS 3 Xrotation Yrotation Zrotation
				JOINT mixamorig:RightToeBase
				{
					OFFSET -0.753601 -20.807106 25.115000
					CHANNELS 3 Xrotation Yrotation Zrotation
					JOINT mixamorig:RightToe_End
					{
						OFFSET 0.000299 0.001700 19.918200
						CHANNELS 3 Xrotation Yrotation Zrotation
						End Site
						{
							OFFSET 0.000000 19.918203 0.000000
						}
					}
				}
			}
		}
	}
}
MOTION
Frames: 4
Frame Time: 0.033333
-2.228825 194.327164 0.643618 5.019135 -13.966595 10.116365 1.774476 4.585961 0.609604 5.177705 9.319217 2.133666 5.034874 9.321733 2.400956 -1.845098 -1.005203 -1.922261 -8.331952 -2.917918 -12.037798 0.000000 -0.000000 0.000000 0.000000 -0.000000 0.000000 0.000000 -0.000000 0.000000 0.691019 -0.875000 -14.226184 -18.744858 -25.288465 -72.307750 0.000005 -68.920741 0.000004 -36.056606 9.257096 42.116169 7.765520 7.904008 -107.399486 4.299854 5.642371 -74.600795 2.407303 4.733126 -53.896968 -0.000000 0.000002 -0.000000 -10.930946 -6.748107 10.337260 -18.089355 8.879842 2.392723 5.698783 5.288820 3.340153 0.000001 0.000001 -0.000000 5.890348 8.200060 -88.621814 6.193147 5.841077 -93.357648 1.839124 4.262516 -46.661479 -0.000000 -0.000002 -0.000003 7.314746 8.035625 -105.795020 3.608020 5.405421 -67.422901 3.239256 5.237602 -63.448776 -0.000000 0.000001 0.000003 10.390418 6.780216 -113.877142 1.747972 4.174842 -45.422189 1.832416 4.256191 -46.570989 -0.000002 0.000002 0.000000 -0.133500 13.109072 18.148929 -38.705043 64.841472 69.860363 -0.000004 37.971364 -0.000007 -24.338607 -7.627296 -15.970114 4.166170 -8.600787 42.153223 7.050180 -3.996523 120.947118 0.504911 -2.110851 26.901282 0.000000 -0.000000 -0.000001 17.912431 17.120579 -32.483570 12.694424 -52.014237 20.210846 2.930823 3.698003 -26.040566 0.000002 0.000000 -0.000000 0.276370 -8.899010 1.740160 5.888246 -4.491806 105.344193 2.534093 -4.146053 62.853621 0.000002 0.000003 -0.000003 -0.361079 -4.549274 57.044224 4.703218 -4.656943 90.567099 2.413024 -4.081839 61.166017 0.000000 0.000001 -0.000001 -5.324596 -0.292060 51.887301 3.526274 -4.518072 75.931616 1.722446 -3.617745 50.907883 0.000000 0.000000 0.000000 -27.910748 -8.815690 -12.785572 15.346639 -5.323751 -6.770912 8.734119 -27.847112 6.719062 -0.000050 -0.707562 0.000004 -0.000000 0.000000 0.000000 -0.695420 -14.912215 -13.447985 28.560322 7.104322 -4.490564 0.847571 -0.987217 12.215875 -35.506817 0.658357 -3.798670 0.000000 0.000003 -0.000000 
-2.056496 194.363312 0.598642 4.858866 -14.310101 9.514525 1.716064 4.467234 0.885102 4.934494 9.063782 2.349737 4.803985 9.066118 2.592117 -0.583246 -1.139820 -0.380396 -9.279518 -1.958565 -13.279670 0.000000 -0.000001 0.000000 0.000000 -0.000001 0.000000 0.000000 -0.000001 0.000000 0.672734 -1.005740 -14.119052 -17.619328 -24.343341 -71.568805 -0.000069 -70.785629 -0.000074 -36.593049 10.482509 41.895223 6.547525 8.199157 -102.249093 4.544948 5.703902 -77.079764 2.517852 4.811535 -55.225795 0.000001 -0.000003 0.000000 -9.544442 -4.937269 10.838121 -15.618370 6.711083 4.213137 4.021636 5.270100 4.176275 0.000003 0.000004 -0.000001 4.600436 8.078455 -82.630249 6.123717 5.844712 -92.675599 2.038058 4.441288 -49.282588 -0.000001 -0.000000 0.000002 7.140170 8.073284 -103.381825 3.814317 5.486294 -69.596363 3.206754 5.221292 -63.091878 -0.000001 -0.000002 0.000001 10.546224 6.788519 -112.276275 1.811658 4.236493 -46.290719 1.866000 4.287639 -47.021826 -0.000001 -0.000002 0.000000 -0.695132 16.031458 18.073063 -36.815642 61.566348 67.840267 -0.000016 39.368681 0.000031 -24.646688 -10.679977 -16.200198 4.098345 -8.703102 40.602111 7.025839 -4.010974 120.598465 0.637818 -2.354369 30.311949 0.000001 0.000003 -0.000002 17.766370 15.078858 -31.105098 9.177203 -49.756128 18.520616 2.928604 3.714312 -26.151649 0.000002 0.000003 -0.000001 0.186259 -8.678059 0.992857 5.720781 -4.534295 103.216159 2.626855 -4.192170 64.129268 -0.000001 -0.000002 -0.000002 -0.253978 -4.547261 55.854497 4.717076 -4.656788 90.737847 2.495061 -4.125837 62.312185 -0.000001 -0.000000 0.000000 -5.196503 -0.724885 53.549168 3.487522 -4.508215 75.439207 1.894051 -3.750347 53.578084 -0.000002 -0.000001 -0.000002 -27.995110 -8.391539 -12.401216 16.278048 -5.841802 -6.302640 8.230764 -28.001663 6.549072 -0.000053 -0.613754 0.000002 -0.000000 -0.000002 -0.000000 -0.475309 -15.868032 -13.200863 28.137494 7.727907 -4.246877 1.060708 -0.951682 11.820179 -35.492115 0.684445 -3.586473 0.000000 0.000002 -0.000000 
-1.858768 194.475952 0.548083 4.937991 -15.380172 9.063163 1.665995 4.448973 1.067370 4.690077 9.003158 2.533633 4.572097 9.005184 2.752294 0.650382 -1.199850 1.067584 -10.295223 -0.816618 -14.190629 -0.000000 -0.000000 0.000000 -0.000000 -0.000000 0.000000 -0.000000 -0.000000 0.000000 0.659141 -1.094436 -13.967455 -16.713306 -23.305073 -70.926488 0.000055 -72.425857 0.000037 -37.100082 11.385913 41.643762 5.283114 8.320831 -97.010481 4.790953 5.754556 -79.543666 2.630261 4.887390 -56.555326 0.000001 0.000003 -0.000001 -8.259001 -3.031893 11.279304 -13.177102 4.587621 6.196558 2.335187 5.234670 4.991395 0.000000 0.000001 -0.000002 3.391373 7.766708 -76.680792 6.046550 5.847787 -91.918152 2.239000 4.606095 -51.829948 -0.000001 0.000002 0.000002 6.958528 8.107517 -100.956548 4.022223 5.558850 -71.756560 3.173148 5.204150 -62.722078 -0.000002 0.000001 0.000000 10.681384 6.817437 -110.682403 1.874002 4.295058 -47.128862 1.897537 4.316741 -47.442190 -0.000001 0.000002 -0.000000 -1.354590 19.153659 18.036148 -35.132171 58.085199 66.025130 -0.000010 40.747054 0.000006 -24.957351 -13.706070 -16.487293 4.037183 -8.828291 38.999707 7.001402 -4.025285 120.249811 0.785003 -2.589559 33.723666 0.000002 0.000001 0.000007 17.640640 13.032558 -29.732005 5.910102 -47.411297 17.086903 2.927085 3.735748 -26.250761 -0.000002 -0.000002 0.000001 0.100019 -8.443400 0.236063 5.556044 -4.569738 101.140833 2.724531 -4.238027 65.458122 -0.000000 -0.000002 -0.000002 -0.145625 -4.552759 54.659542 4.729600 -4.656622 90.891984 2.576764 -4.167565 63.441857 0.000001 -0.000001 0.000004 -5.045267 -1.150907 55.201418 3.448872 -4.498026 74.946785 2.071698 -3.874854 56.249070 -0.000001 -0.000001 0.000002 -28.064808 -7.836295 -11.821346 16.873859 -6.290279 -5.902177 7.755501 -27.649955 6.304028 -0.000096 -0.586667 0.000001 -0.000000 -0.000000 0.000000 -0.866959 -16.663206 -13.431870 28.044277 8.663411 -3.911435 1.409586 -0.562733 11.499632 -35.557487 0.746759 -3.536203 0.000000 0.000000 0.000000 
-1.691149 194.625473 0.527349 5.178992 -17.034000 8.747751 1.631348 4.483695 1.147879 4.469814 9.050738 2.612362 4.364264 9.052592 2.807769 1.789239 -1.178741 2.375701 -11.236158 0.396624 -14.584667 0.000000 -0.000000 -0.000000 0.000000 -0.000000 -0.000000 0.000000 -0.000000 -0.000000 0.646246 -1.174633 -13.536230 -15.975688 -21.948876 -70.589554 -0.000159 -74.024381 -0.000137 -37.385587 12.116157 41.401349 4.028000 8.259261 -91.713997 5.038599 5.794546 -82.004563 2.744383 4.960604 -57.885054 0.000001 0.000003 0.000002 -7.066985 -0.999882 11.701085 -10.682538 2.479416 8.304465 0.646557 5.165188 5.767904 0.000000 0.000003 -0.000004 2.257733 7.273318 -70.683565 5.982111 5.849583 -91.285772 2.457520 4.769208 -54.503277 -0.000000 -0.000003 0.000001 6.811976 8.131383 -98.577723 4.233509 5.623791 -73.924797 3.140350 5.187196 -62.359750 -0.000002 -0.000000 0.000003 10.813870 6.865423 -108.976768 1.928450 4.344827 -47.851680 1.920549 4.337687 -47.747196 -0.000001 -0.000004 -0.000000 -2.104127 22.420898 18.113339 -34.049794 54.776939 64.753567 -0.000031 41.775711 0.000041 -25.275535 -16.419201 -16.680140 3.977519 -8.971763 37.360202 6.976885 -4.039464 119.901143 0.945966 -2.815545 37.136483 0.000002 -0.000001 -0.000002 17.539367 10.975765 -28.364111 2.871434 -44.996029 15.891046 2.926434 3.763896 -26.336154 -0.000001 0.000004 -0.000002 0.019441 -8.196073 -0.518633 5.393168 -4.598728 99.102958 2.826071 -4.282813 66.824802 -0.000002 0.000001 -0.000002 -0.033641 -4.567445 53.450629 4.741216 -4.656416 91.035254 2.658466 -4.207309 64.560820 -0.000001 -0.000000 -0.000003 -4.870053 -1.571679 56.855287 3.410282 -4.487503 74.454424 2.254977 -3.990976 58.920832 0.000001 0.000001 0.000001 -28.137270 -7.083766 -11.104872 17.355808 -6.710867 -5.524498 7.222239 -26.965428 6.011097 0.000007 -0.524375 0.000005 0.000000 0.000000 -0.000000 -1.697191 -17.417737 -14.381139 27.993880 9.127638 -2.974657 1.853973 0.928168 10.848401 -35.657829 0.810473 -3.475642 -0.000000 -0.000002 0.000000 
